<?xml version="1.0" encoding="utf-8"?>
<!-- Generator: Adobe Illustrator 16.0.0, SVG Export Plug-In . SVG Version: 6.00 Build 0)  -->
<!DOCTYPE svg PUBLIC "-//W3C//DTD SVG 1.1//EN" "http://www.w3.org/Graphics/SVG/1.1/DTD/svg11.dtd">
<svg version="1.1" id="Layer_1" xmlns="http://www.w3.org/2000/svg" xmlns:xlink="http://www.w3.org/1999/xlink" x="0px" y="0px"
	 width="66.32px" height="100px" viewBox="0 0 66.32 100" enable-background="new 0 0 66.32 100" xml:space="preserve">
<g>
	<rect x="45.214" y="38.586" fill="none" width="7.195" height="7.196"/>
	<rect x="45.214" y="48.692" fill="none" width="7.195" height="7.196"/>
	<rect x="24.608" y="38.586" fill="none" width="7.196" height="7.196"/>
	<rect x="33.567" y="25.953" fill="none" width="24.026" height="5.949"/>
	<rect x="24.608" y="48.692" fill="none" width="7.196" height="7.196"/>
	<rect x="34.861" y="38.586" fill="none" width="7.196" height="7.196"/>
	<rect x="34.861" y="48.692" fill="none" width="7.196" height="7.196"/>
	<rect x="14.156" y="38.586" fill="none" width="7.196" height="7.196"/>
	<path fill="none" d="M16.263,6.185h-0.044l-2.689-2.688l-2.688,2.688v18.172H10.82v9.828h16.743v-9.828v-1.921V6.185h-0.062
		l-2.632-2.632l-2.63,2.632H22.18l-2.961-2.959l-2.958,2.957L16.263,6.185z M25.207,31.901H12.861v-3.013h12.346V31.901z
		 M25.207,23.712v3.013H12.861v-3.013H25.207z M20.258,18.536v3.013h-7.397v-3.013H20.258z"/>
	<rect x="14.156" y="48.692" fill="none" width="7.196" height="7.196"/>
	<rect x="5.304" y="59.769" fill="none" width="56.064" height="10.236"/>
	<path fill="#010101" d="M66.32,55.887h-4.646V22.436H29.871V4.437l-1.682-1.455h-0.024L25.182,0l-2.958,2.958l0.111,0.017h-0.142
		l-2.972-2.974l-2.958,2.958l0.085,0.008h-0.126l-2.966-2.966l-2.958,2.958L8.761,4.545L8.59,22.436H4.646v33.453H0v18.257h20.79
		L33.437,100L45.89,74.145H66.32V55.887z M21.352,45.783h-7.196v-7.196h7.196V45.783z M42.057,45.783h-7.196v-7.196h7.196V45.783z
		 M42.057,48.692v7.196h-7.196v-7.196H42.057z M31.803,55.887h-7.196V48.69h7.196V55.887z M45.214,55.887V48.69h7.195v7.197H45.214z
		 M45.214,45.783v-7.196h7.195v7.196H45.214z M33.567,25.953h24.026v5.949H33.567V25.953z M31.803,45.783h-7.196v-7.196h7.196
		V45.783z M22.18,6.185h0.062l2.631-2.632l2.632,2.632h0.062v16.251v1.921v9.828H10.822v-9.828h0.021V6.185l2.688-2.688l2.689,2.688
		h0.045l-0.002-0.002l2.958-2.957L22.18,6.185z M14.156,48.692h7.196v7.196h-7.196V48.692z M61.368,70.005H5.304V59.769h56.064
		V70.005z"/>
	<rect x="12.861" y="28.889" fill="#010101" width="12.346" height="3.013"/>
	<rect x="12.861" y="23.712" fill="#010101" width="12.346" height="3.013"/>
	<rect x="12.861" y="18.536" fill="#010101" width="7.397" height="3.013"/>
</g>
</svg>
